<?xml version="1.0" encoding="UTF-8"?>
<svg version="1.1" xmlns="http://www.w3.org/2000/svg" width="720" height="631">
<path d="M0 0 C237.6 0 475.2 0 720 0 C720 208.23 720 416.46 720 631 C482.4 631 244.8 631 0 631 C0 422.77 0 214.54 0 0 Z " fill="#FEFEFE" transform="translate(0,0)"/>
<path d="M0 0 C0.8431778 0.00176239 1.68635559 0.00352478 2.55508423 0.00534058 C51.07221395 0.22994898 94.39771752 21.26269908 129 54.5 C129.51336914 54.99145508 130.02673828 55.48291016 130.55566406 55.98925781 C137.17529435 62.36295756 143.82552631 68.86004179 149 76.5 C149 77.16 149 77.82 149 78.5 C148.01773438 78.51401855 148.01773438 78.51401855 147.015625 78.52832031 C144.00969095 78.5824526 141.00524225 78.66601389 138 78.75 C136.97003906 78.76417969 135.94007813 78.77835937 134.87890625 78.79296875 C125.26159992 79.09925239 119.62486802 82.03134899 112 87.75 C111.05125 88.45640625 110.1025 89.1628125 109.125 89.890625 C108.42375 90.42171875 107.7225 90.9528125 107 91.5 C107.59663182 95.91244101 107.59663182 95.91244101 109.5 99.875 C113.36052306 102.38433999 116.53241636 102.39759671 121 101.5 C126.36863343 99.30134508 130.9726092 96.46305322 135.296875 92.61328125 C139.10756519 89.27672267 143.22924464 86.80161589 147.625 84.3125 C149.0963906 83.46490699 150.56774568 82.61725232 152.0390625 81.76953125 C152.72387695 81.37975098 153.40869141 80.9899707 154.11425781 80.58837891 C155.72776104 79.65712601 157.3160193 78.68236537 158.8984375 77.69921875 C161 76.5 161 76.5 163 76.5 C160.10329633 72.51703245 156.79168464 69.49493217 153.07421875 66.3203125 C151.12996026 64.61405175 149.30976314 62.84703515 147.5 61 C145.08934521 58.54551512 142.60647609 56.2455794 140 54 C136.77043633 51.21760668 133.76677347 48.28980571 130.78125 45.25 C128.91610326 43.41757513 126.98072254 41.70646865 125 40 C121.77643868 37.22277794 118.77424388 34.30654038 115.8046875 31.26171875 C113.21155433 28.73032685 110.41788974 26.4538529 107.6015625 24.17578125 C105.80341709 22.29430715 105.38752647 21.04106645 105 18.5 C106.60194071 17.51719585 108.20663742 16.53888283 109.8125 15.5625 C111.15248047 14.74458984 111.15248047 14.74458984 112.51953125 13.91015625 C118.40544882 10.56398894 124.41356488 10.60028884 131 11.5 C135.75729648 13.27527073 140.07431633 15.64929875 144.50097656 18.12207031 C149.44685344 20.84916382 154.48239448 23.40806166 159.5 26 C160.62849365 26.58426758 161.7569873 27.16853516 162.91967773 27.77050781 C165.32167251 29.01386214 167.72422734 30.25607977 170.12744141 31.49707031 C172.82784 32.89211593 175.52482322 34.29354843 178.22021484 35.69824219 C181.82824774 37.5767968 185.4451392 39.43731657 189.06787109 41.28735352 C190.46911246 42.00637336 191.86746195 42.73106007 193.26269531 43.46166992 C195.22362658 44.4872606 197.1941242 45.49172681 199.16796875 46.4921875 C200.85829224 47.36399658 200.85829224 47.36399658 202.58276367 48.25341797 C208.22782503 50.31269376 212.17176228 50.21703763 217.64404297 48.07080078 C218.89355469 47.41996861 220.13436371 46.75222714 221.3671875 46.0703125 C222.77290591 45.33066292 224.17883872 44.59142069 225.58496094 43.85253906 C226.30889038 43.46505493 227.03281982 43.0775708 227.77868652 42.67834473 C231.46941681 40.72051545 235.20908148 38.86126079 238.9453125 36.9921875 C240.47021909 36.22559254 241.99495781 35.45866356 243.51953125 34.69140625 C244.27830566 34.31000488 245.03708008 33.92860352 245.81884766 33.53564453 C247.36057817 32.75971961 248.90159111 31.98236732 250.44189453 31.20361328 C271.74730768 20.43616794 292.69668376 10.42994437 317 17.5 C315.21340813 24.8505494 312.26248854 29.17741779 307 34.5 C305.8991796 35.6609276 304.79897458 36.82243888 303.69921875 37.984375 C289.25811645 53.04101227 273.12397546 63.04163426 254.48828125 72.22265625 C253.82021454 72.55271164 253.15214783 72.88276703 252.46383667 73.2228241 C249.08151101 74.89232186 245.69390567 76.54900047 242.29492188 78.18432617 C241.02589472 78.80487537 239.7570086 79.42571308 238.48828125 80.046875 C237.35946533 80.59182617 236.23064941 81.13677734 235.06762695 81.69824219 C230.3873884 84.44716065 227.51253474 86.93550871 225.80859375 92.13671875 C225.51784819 93.58705397 225.24992103 95.0420752 225 96.5 C224.76627686 97.73290771 224.76627686 97.73290771 224.52783203 98.99072266 C224.01358778 101.76071027 223.53411993 104.53494869 223.0625 107.3125 C222.80146484 108.83145874 222.80146484 108.83145874 222.53515625 110.38110352 C221.48005522 116.55994196 220.46911897 122.74464239 219.5 128.9375 C219.38205078 129.68620361 219.26410156 130.43490723 219.14257812 131.20629883 C218.60400777 134.62888465 218.06815946 138.05170636 217.54736328 141.47705078 C217.06272093 144.65305729 216.56340804 147.82652254 216.0625 151 C215.91683594 151.9789624 215.77117187 152.9579248 215.62109375 153.96655273 C214.15124834 163.14140877 212.08733128 173.0289584 205 179.5 C198.92790231 183.31370346 192.96640651 185.10061785 186 186.5 C183.57153041 159.85971461 181.70073471 133.19588402 180 106.5 C175.07347726 108.54231093 170.14798947 110.58709224 165.22338867 112.6340332 C163.55276307 113.32804971 161.88187097 114.02142509 160.21069336 114.71411133 C157.7894726 115.71782002 155.36908195 116.72349173 152.94921875 117.73046875 C152.16610321 118.05610809 151.38298767 118.38174744 150.57614136 118.71725464 C145.334694 120.90896861 140.16213515 123.21607074 135.04223633 125.6809082 C133 126.5 133 126.5 130 126.5 C131.98 129.965 131.98 129.965 134 133.5 C137.84093689 132.90776424 140.70341429 131.77254262 144.08984375 129.8828125 C145.03923828 129.35816406 145.98863281 128.83351562 146.96679688 128.29296875 C147.94712891 127.74253906 148.92746094 127.19210938 149.9375 126.625 C166.35599762 117.5 166.35599762 117.5 169 117.5 C176.65095051 143.05417471 176.38256042 172.56408666 171 198.5 C170.70198486 199.99926025 170.70198486 199.99926025 170.39794922 201.52880859 C163.21440569 237.15595593 146.73856669 268.59541576 128.5703125 299.79589844 C126.30173029 303.70243086 124.06790415 307.62856654 121.83129883 311.5534668 C119.55977487 315.53883922 117.2802722 319.51962847 115 323.5 C109.65893237 322.93750722 105.62485847 321.09644926 100.91015625 318.703125 C100.13713165 318.31795212 99.36410706 317.93277924 98.56765747 317.53593445 C96.06129406 316.28297218 93.56160564 315.01736928 91.0625 313.75 C90.20919098 313.32026886 89.35588196 312.89053772 88.47671509 312.44778442 C75.56703344 305.94526136 62.83646912 299.21624844 50.37109375 291.890625 C48.07916078 290.54642708 45.77618001 289.22362685 43.46875 287.90625 C35.84317699 283.52698746 28.40361183 278.90419894 21.0625 274.0625 C20.28608154 273.55388428 19.50966309 273.04526855 18.7097168 272.52124023 C17.99211182 272.04114502 17.27450684 271.5610498 16.53515625 271.06640625 C15.899729 270.64302979 15.26430176 270.21965332 14.60961914 269.78344727 C13 268.5 13 268.5 11 265.5 C15.62766775 263.68522833 20.21285673 262.15385397 25 260.8125 C38.50646356 256.68552502 53.22713009 249.38158138 63.234375 239.234375 C65 237.5 65 237.5 67 237.5 C67.25523437 236.91992188 67.51046875 236.33984375 67.7734375 235.7421875 C69.12224635 233.27653057 70.66357664 231.63330997 72.625 229.625 C86.2992397 214.4644299 93.43211707 194.0144862 93.25 173.8125 C93.24613281 172.76900391 93.24226563 171.72550781 93.23828125 170.65039062 C93.14727409 162.46480204 92.44618014 154.55728935 91 146.5 C83.17740148 152.40215698 75.56495591 158.47940467 68.1171875 164.84765625 C65.27812875 167.27352276 62.39757045 169.64414924 59.5 172 C53.26083244 177.08175677 47.13108038 182.28894106 41 187.5 C38.79262849 189.3761364 36.58444412 191.25130474 34.375 193.125 C33.83520508 193.58302002 33.29541016 194.04104004 32.73925781 194.51293945 C29.31915227 197.40699428 25.85962574 200.24609085 22.375 203.0625 C17.62652139 206.92367165 13.09573436 210.98322325 8.60546875 215.140625 C6.79380516 216.78117194 4.91869865 218.35321435 3 219.8671875 C-0.31242635 222.77418667 -2.68674718 225.77797332 -5.1875 229.375 C-5.61224609 229.96152344 -6.03699219 230.54804688 -6.47460938 231.15234375 C-12.21693321 239.2791162 -14.26687392 246.55805609 -13 256.5 C-9.62217678 266.46833163 -0.77970257 273.00148771 7.5 278.875 C8.2933374 279.440979 9.0866748 280.00695801 9.90405273 280.59008789 C17.0552352 285.63540946 24.38846014 290.18921463 32 294.5 C33.31967773 295.25120117 33.31967773 295.25120117 34.66601562 296.01757812 C49.56256402 304.4799366 64.61329454 312.64574029 79.71435547 320.73583984 C85.35953102 323.7669023 90.99219011 326.8210365 96.625 329.875 C97.66922119 330.440979 98.71344238 331.00695801 99.78930664 331.59008789 C102.19302973 332.89309973 104.59660381 334.19638532 107 335.5 C105.60923463 338.41591399 104.03008964 341.07439556 102.23217773 343.75708008 C101.67893326 344.58487473 101.12568878 345.41266937 100.55567932 346.26554871 C99.95851608 347.15373795 99.36135284 348.04192719 98.74609375 348.95703125 C97.81077065 350.35378838 97.81077065 350.35378838 96.85655212 351.77876282 C94.90719102 354.68774816 92.95416078 357.59423717 91 360.5 C90.41277161 361.3738031 89.82554321 362.2476062 89.22052002 363.14788818 C85.17491342 369.16586649 81.11976252 375.1773762 77.0625 381.1875 C75.79196658 383.07045798 74.52145925 384.95343357 73.25097656 386.83642578 C63.29111005 401.59591477 53.31587058 416.34498203 43.33648682 431.09127808 C37.9964069 438.9825029 32.65835265 446.87509609 27.3223877 454.769104 C26.25526638 456.34763561 25.1879728 457.92605079 24.1204834 459.5043335 C23.11385918 460.99265841 22.10749638 462.48116016 21.10140991 463.96984863 C20.1360438 465.39801522 19.16993569 466.82568058 18.20303345 468.25280762 C15.81241859 471.78751904 13.44702632 475.33588963 11.11962891 478.91259766 C10.66054642 479.61431595 10.20146393 480.31603424 9.72846985 481.03901672 C8.85841329 482.37156545 7.99402073 483.7078347 7.13615417 485.04826355 C6.14223594 486.5671286 5.07768702 488.0393785 4 489.5 C3.34 489.5 2.68 489.5 2 489.5 C0.79382324 488.07324219 0.79382324 488.07324219 -0.56445312 486.046875 C-1.07472046 485.2930957 -1.58498779 484.53931641 -2.11071777 483.76269531 C-2.66199341 482.93350586 -3.21326904 482.10431641 -3.78125 481.25 C-4.35927368 480.39245117 -4.93729736 479.53490234 -5.53283691 478.65136719 C-6.75309887 476.8398103 -7.97043697 475.02628097 -9.18505859 473.2109375 C-10.88826807 470.6668915 -12.60010364 468.12897561 -14.31640625 465.59375 C-17.71843384 460.56753945 -21.10977798 455.53417846 -24.5 450.5 C-27.06230315 446.69648194 -29.62488378 442.89315088 -32.1875 439.08984375 C-32.83626099 438.12682846 -33.48502197 437.16381317 -34.15344238 436.1716156 C-38.5323261 429.67314339 -42.92008129 423.18073553 -47.3125 416.69140625 C-59.93867648 398.02977256 -72.47841358 379.31511854 -84.875 360.5 C-85.79744507 359.10033493 -85.79744507 359.10033493 -86.73852539 357.6723938 C-110.8813087 321.01988813 -110.8813087 321.01988813 -116 302.5 C-116.4125 301.365625 -116.825 300.23125 -117.25 299.0625 C-120.10322454 285.50968344 -117.5093817 270.08354632 -110.60546875 258.07421875 C-103.55277148 247.58955201 -94.93215347 237.33924128 -85 229.5 C-84.20980469 228.81550781 -83.41960937 228.13101563 -82.60546875 227.42578125 C-71.43034182 218.17687319 -58.47075712 211.54242787 -45.8381958 204.52392578 C-42.905977 202.890599 -39.98290098 201.24120006 -37.05859375 199.59375 C-23.30843588 191.8715472 -9.41773847 184.46520001 4.609375 177.26000977 C7.147987 175.94226395 9.67797128 174.61236455 12.203125 173.26928711 C23.42951256 167.30362306 34.76652441 161.60466771 46.20068359 156.0480957 C49.02740747 154.67417872 51.85173745 153.29543181 54.67578125 151.91601562 C63.39915726 147.66179365 72.1184979 143.41685683 81 139.5 C80.01 138.84 79.02 138.18 78 137.5 C78.85464844 136.72914063 79.70929688 135.95828125 80.58984375 135.1640625 C81.70587076 134.15119765 82.82174844 133.13816827 83.9375 132.125 C84.50146484 131.61710938 85.06542969 131.10921875 85.64648438 130.5859375 C88.73384712 127.87315113 88.73384712 127.87315113 91 124.5 C89.80375 124.809375 88.6075 125.11875 87.375 125.4375 C83.54791211 125.89406487 83.54791211 125.89406487 81.4140625 124.359375 C79.82079271 122.47561956 78.40561617 120.52795005 77 118.5 C62.56874348 98.80283464 41.61685362 86.17280285 17.47753906 82.22119141 C-6.90968464 78.85257212 -32.05034023 83.34378682 -52.14941406 98.10205078 C-70.27144526 111.97290672 -82.39370547 129.96560951 -87 152.5 C-87.17055908 153.27448486 -87.34111816 154.04896973 -87.5168457 154.84692383 C-90.35933205 170.45546305 -88.75482711 188.52943965 -81.33203125 202.6796875 C-79.92501686 205.65876195 -79.442491 207.26320018 -80 210.5 C-81.43359375 212.2734375 -81.43359375 212.2734375 -83.4375 213.875 C-84.17097656 214.473125 -84.90445313 215.07125 -85.66015625 215.6875 C-87.89620386 217.41959698 -90.1340025 219.14931209 -92.375 220.875 C-108.31334327 233.16480686 -120.78002602 247.05932819 -127 266.5 C-127.86452341 269.04598179 -128.73908575 271.58658315 -129.625 274.125 C-130.02976563 275.31351562 -130.43453125 276.50203125 -130.8515625 277.7265625 C-132 280.5 -132 280.5 -134 281.5 C-158.20991555 230.49861744 -158.20991555 230.49861744 -164 206.5 C-164.20882812 205.68547363 -164.41765625 204.87094727 -164.6328125 204.03173828 C-174.41308797 164.96479933 -168.11644665 120.66045694 -147.56738281 86.08984375 C-141.72206655 76.7098842 -135.30092453 67.80528452 -128 59.5 C-127.17628906 58.55511719 -126.35257813 57.61023438 -125.50390625 56.63671875 C-120.63512556 51.1602668 -115.63630599 46.17153289 -110 41.5 C-109.12988281 40.74203125 -108.25976562 39.9840625 -107.36328125 39.203125 C-77.02378625 13.11683023 -39.87815348 -0.22512699 0 0 Z " fill="#020202" transform="translate(306,77.5)"/>
<path d="M0 0 C0.8431778 0.00176239 1.68635559 0.00352478 2.55508423 0.00534058 C51.07221395 0.22994898 94.39771752 21.26269908 129 54.5 C129.51336914 54.99145508 130.02673828 55.48291016 130.55566406 55.98925781 C137.17529435 62.36295756 143.82552631 68.86004179 149 76.5 C149 77.16 149 77.82 149 78.5 C148.01773438 78.51401855 148.01773438 78.51401855 147.015625 78.52832031 C144.00969095 78.5824526 141.00524225 78.66601389 138 78.75 C136.97003906 78.76417969 135.94007813 78.77835937 134.87890625 78.79296875 C125.26159992 79.09925239 119.62486802 82.03134899 112 87.75 C111.05125 88.45640625 110.1025 89.1628125 109.125 89.890625 C108.42375 90.42171875 107.7225 90.9528125 107 91.5 C107.64138403 96.37451861 108.65755411 98.83409161 112 102.5 C105.00465194 102.11442963 100.44719644 100.62442349 94.5 97 C93.78585937 96.58363281 93.07171875 96.16726562 92.3359375 95.73828125 C87.25129608 92.75129608 87.25129608 92.75129608 86 91.5 C80.75965508 90.85644887 77.94648824 91.11356338 73.625 94.25 C70.84790502 96.44069644 69.50169892 98.32638233 68 101.5 C68.90878906 102.39307861 68.90878906 102.39307861 69.8359375 103.30419922 C72.07625904 105.5104851 74.31208093 107.72120439 76.54492188 109.93505859 C77.51318538 110.89324956 78.48323426 111.84963982 79.45507812 112.80419922 C80.8497097 114.1746382 82.23746521 115.55206367 83.625 116.9296875 C84.46289062 117.75710449 85.30078125 118.58452148 86.1640625 119.43701172 C88 121.5 88 121.5 88 123.5 C88.66 123.83 89.32 124.16 90 124.5 C86.875 125.4375 86.875 125.4375 83 125.5 C80.47146219 123.60197162 78.81709668 121.06291994 77 118.5 C62.54131559 98.81086985 41.63594716 86.17592847 17.47753906 82.22119141 C-6.90968464 78.85257212 -32.05034023 83.34378682 -52.14941406 98.10205078 C-70.27144526 111.97290672 -82.39370547 129.96560951 -87 152.5 C-87.17055908 153.27448486 -87.34111816 154.04896973 -87.5168457 154.84692383 C-90.35933205 170.45546305 -88.75482711 188.52943965 -81.33203125 202.6796875 C-79.92501686 205.65876195 -79.442491 207.26320018 -80 210.5 C-81.43359375 212.2734375 -81.43359375 212.2734375 -83.4375 213.875 C-84.17097656 214.473125 -84.90445313 215.07125 -85.66015625 215.6875 C-87.89620386 217.41959698 -90.1340025 219.14931209 -92.375 220.875 C-108.31334327 233.16480686 -120.78002602 247.05932819 -127 266.5 C-127.86452341 269.04598179 -128.73908575 271.58658315 -129.625 274.125 C-130.02976563 275.31351562 -130.43453125 276.50203125 -130.8515625 277.7265625 C-132 280.5 -132 280.5 -134 281.5 C-158.20991555 230.49861744 -158.20991555 230.49861744 -164 206.5 C-164.20882812 205.68547363 -164.41765625 204.87094727 -164.6328125 204.03173828 C-174.41308797 164.96479933 -168.11644665 120.66045694 -147.56738281 86.08984375 C-141.72206655 76.7098842 -135.30092453 67.80528452 -128 59.5 C-127.17628906 58.55511719 -126.35257813 57.61023438 -125.50390625 56.63671875 C-120.63512556 51.1602668 -115.63630599 46.17153289 -110 41.5 C-109.12988281 40.74203125 -108.25976562 39.9840625 -107.36328125 39.203125 C-77.02378625 13.11683023 -39.87815348 -0.22512699 0 0 Z " fill="#C10409" transform="translate(306,77.5)"/>
<path d="M0 0 C2.77426292 1.44563041 5.5147979 2.94584591 8.24584961 4.47143555 C13.19172649 7.19852905 18.22726753 9.75742689 23.24487305 12.34936523 C24.3733667 12.93363281 25.50186035 13.51790039 26.66455078 14.11987305 C29.06654556 15.36322737 31.46910039 16.605445 33.87231445 17.84643555 C36.57271305 19.24148117 39.26969627 20.64291367 41.96508789 22.04760742 C45.57312079 23.92616203 49.19001224 25.7866818 52.81274414 27.63671875 C54.2139855 28.35573859 55.61233499 29.08042531 57.00756836 29.81103516 C58.96849962 30.83662583 60.93899724 31.84109205 62.9128418 32.84155273 C64.03972412 33.42275879 65.16660645 34.00396484 66.32763672 34.6027832 C71.97269808 36.662059 75.91663532 36.56640286 81.38891602 34.42016602 C82.63842774 33.76933384 83.87923676 33.10159238 85.11206055 32.41967773 C86.51777896 31.68002815 87.92371176 30.94078592 89.32983398 30.2019043 C90.05376343 29.81442017 90.77769287 29.42693604 91.52355957 29.02770996 C95.21428985 27.06988068 98.95395453 25.21062602 102.69018555 23.34155273 C104.21509214 22.57495778 105.73983086 21.8080288 107.2644043 21.04077148 C108.02317871 20.65937012 108.78195312 20.27796875 109.5637207 19.88500977 C111.10545121 19.10908484 112.64646416 18.33173255 114.18676758 17.55297852 C135.49218073 6.78553318 156.4415568 -3.2206904 180.74487305 3.84936523 C178.95828118 11.19991463 176.00736159 15.52678302 170.74487305 20.84936523 C169.64405265 22.01029283 168.54384763 23.17180411 167.4440918 24.33374023 C153.0029895 39.3903775 136.86884851 49.39099949 118.2331543 58.57202148 C117.56508759 58.90207687 116.89702087 59.23213226 116.20870972 59.57218933 C112.82638406 61.24168709 109.43877872 62.8983657 106.03979492 64.53369141 C104.77076777 65.1542406 103.50188165 65.77507831 102.2331543 66.39624023 C100.53993042 67.21366699 100.53993042 67.21366699 98.8125 68.04760742 C94.13226145 70.79652589 91.25740779 73.28487394 89.5534668 78.48608398 C89.26272123 79.93641921 88.99479408 81.39144044 88.74487305 82.84936523 C88.5111499 84.08227295 88.5111499 84.08227295 88.27270508 85.34008789 C87.75846083 88.11007551 87.27899298 90.88431392 86.80737305 93.66186523 C86.63334961 94.67450439 86.45932617 95.68714355 86.2800293 96.73046875 C85.22492826 102.9093072 84.21399202 109.09400763 83.24487305 115.28686523 C83.12692383 116.03556885 83.00897461 116.78427246 82.88745117 117.55566406 C82.34888081 120.97824989 81.8130325 124.4010716 81.29223633 127.82641602 C80.80759397 131.00242252 80.30828109 134.17588778 79.80737305 137.34936523 C79.66170898 138.32832764 79.51604492 139.30729004 79.3659668 140.31591797 C77.89612138 149.49077401 75.83220432 159.37832363 68.74487305 165.84936523 C62.67277536 169.6630687 56.71127956 171.44998308 49.74487305 172.84936523 C47.31640346 146.20907984 45.44560775 119.54524925 43.74487305 92.84936523 C38.8183503 94.89167616 33.89286251 96.93645747 28.96826172 98.98339844 C27.29763612 99.67741495 25.62674401 100.37079033 23.95556641 101.06347656 C21.53434565 102.06718526 19.11395499 103.07285696 16.6940918 104.07983398 C15.91097626 104.40547333 15.12786072 104.73111267 14.3210144 105.06661987 C9.07956705 107.25833384 3.90700819 109.56543598 -1.21289062 112.03027344 C-3.25512695 112.84936523 -3.25512695 112.84936523 -6.25512695 112.84936523 C-4.93512695 115.15936523 -3.61512695 117.46936523 -2.25512695 119.84936523 C1.58580993 119.25712947 4.44828733 118.12190785 7.8347168 116.23217773 C8.78411133 115.7075293 9.73350586 115.18288086 10.71166992 114.64233398 C11.69200195 114.0919043 12.67233398 113.54147461 13.68237305 112.97436523 C30.10087067 103.84936523 30.10087067 103.84936523 32.74487305 103.84936523 C40.39582356 129.40353995 40.12743347 158.9134519 34.74487305 184.84936523 C34.44685791 186.34862549 34.44685791 186.34862549 34.14282227 187.87817383 C26.95927874 223.50532117 10.48343974 254.944781 -7.68481445 286.14526367 C-9.95339666 290.05179609 -12.1872228 293.97793177 -14.42382812 297.90283203 C-16.69535209 301.88820446 -18.97485475 305.86899371 -21.25512695 309.84936523 C-26.59619458 309.28687245 -30.63026849 307.44581449 -35.3449707 305.05249023 C-36.1179953 304.66731735 -36.8910199 304.28214447 -37.68746948 303.88529968 C-40.1938329 302.63233741 -42.69352132 301.36673452 -45.19262695 300.09936523 C-46.04593597 299.66963409 -46.899245 299.23990295 -47.77841187 298.79714966 C-60.68809351 292.2946266 -73.41865783 285.56561368 -85.8840332 278.23999023 C-88.17596617 276.89579232 -90.47894695 275.57299209 -92.78637695 274.25561523 C-100.41194996 269.8763527 -107.85151512 265.25356418 -115.19262695 260.41186523 C-116.35725464 259.64894165 -116.35725464 259.64894165 -117.54541016 258.87060547 C-118.26301514 258.39051025 -118.98062012 257.91041504 -119.7199707 257.41577148 C-120.35539795 256.99239502 -120.9908252 256.56901855 -121.64550781 256.1328125 C-123.25512695 254.84936523 -123.25512695 254.84936523 -125.25512695 251.84936523 C-120.6274592 250.03459357 -116.04227022 248.5032192 -111.25512695 247.16186523 C-97.7486634 243.03489026 -83.02799687 235.73094662 -73.02075195 225.58374023 C-71.25512695 223.84936523 -71.25512695 223.84936523 -69.25512695 223.84936523 C-68.99989258 223.26928711 -68.7446582 222.68920898 -68.48168945 222.09155273 C-67.13288061 219.6258958 -65.59155031 217.98267521 -63.63012695 215.97436523 C-49.89315965 200.74424931 -42.81968664 180.25831045 -43.00512695 159.97436523 C-43.01116943 158.91515869 -43.01721191 157.85595215 -43.0234375 156.76464844 C-43.16554003 145.58505483 -45.09555355 135.54978716 -48.25512695 124.84936523 C-49.40561523 125.11040039 -49.40561523 125.11040039 -50.5793457 125.37670898 C-53.46930432 125.88719802 -55.43626739 125.57421484 -58.25512695 124.84936523 C-55.34950827 121.27401175 -52.49702577 117.91316096 -48.88012695 115.03686523 C-48.01387695 114.31499023 -47.14762695 113.59311523 -46.25512695 112.84936523 C-46.02697661 110.6253515 -46.02697661 110.6253515 -48.1730957 108.80639648 C-49.19989992 107.82015737 -50.2273431 106.83458341 -51.25512695 105.84936523 C-52.73313395 104.37685652 -54.20812357 102.90131604 -55.6809082 101.42358398 C-56.4769043 100.62758789 -57.27290039 99.8315918 -58.09301758 99.01147461 C-61.8137207 95.29077148 -65.53442383 91.57006836 -69.25512695 87.84936523 C-67.78114579 84.73240889 -66.42881008 82.86538798 -63.75512695 80.66186523 C-63.14668945 80.15268555 -62.53825195 79.64350586 -61.91137695 79.11889648 C-58.8378019 76.76297221 -56.31076023 76.4911171 -52.44360352 76.54174805 C-48.60880613 77.08077579 -45.78783686 79.08865272 -42.63012695 81.22436523 C-33.68789891 87.08812133 -26.1119018 89.18883746 -15.25512695 87.84936523 C-9.73162735 85.83703498 -5.34159351 82.84207385 -0.9777832 78.96264648 C2.84254887 75.63350736 6.97184859 73.15226601 11.36987305 70.66186523 C12.84126364 69.81427222 14.31261873 68.96661756 15.78393555 68.11889648 C16.46875 67.72911621 17.15356445 67.33933594 17.85913086 66.93774414 C19.47263409 66.00649124 21.06089235 65.0317306 22.64331055 64.04858398 C24.74487305 62.84936523 24.74487305 62.84936523 26.74487305 62.84936523 C23.84816937 58.86639768 20.53655769 55.84429741 16.8190918 52.66967773 C14.87483331 50.96341699 13.05463618 49.19640038 11.24487305 47.34936523 C8.83421825 44.89488035 6.35134913 42.59494463 3.74487305 40.34936523 C0.51530938 37.56697192 -2.48835348 34.63917095 -5.47387695 31.59936523 C-7.3390237 29.76694036 -9.27440441 28.05583389 -11.25512695 26.34936523 C-14.47868827 23.57214317 -17.48088308 20.65590562 -20.45043945 17.61108398 C-23.04357262 15.07969208 -25.83723722 12.80321813 -28.65356445 10.52514648 C-30.45170986 8.64367239 -30.86760048 7.39043169 -31.25512695 4.84936523 C-29.65318624 3.86656108 -28.04848953 2.88824806 -26.44262695 1.91186523 C-25.54930664 1.3665918 -24.65598633 0.82131836 -23.7355957 0.25952148 C-16.38318381 -3.92035362 -7.53706822 -3.61076239 0 0 Z " fill="#B80307" transform="translate(442.255126953125,91.150634765625)"/>
<path d="M0 0 C2.77426292 1.44563041 5.5147979 2.94584591 8.24584961 4.47143555 C13.19172649 7.19852905 18.22726753 9.75742689 23.24487305 12.34936523 C24.3733667 12.93363281 25.50186035 13.51790039 26.66455078 14.11987305 C29.06654556 15.36322737 31.46910039 16.605445 33.87231445 17.84643555 C36.57271305 19.24148117 39.26969627 20.64291367 41.96508789 22.04760742 C45.57312079 23.92616203 49.19001224 25.7866818 52.81274414 27.63671875 C54.2139855 28.35573859 55.61233499 29.08042531 57.00756836 29.81103516 C58.96849962 30.83662583 60.93899724 31.84109205 62.9128418 32.84155273 C64.03972412 33.42275879 65.16660645 34.00396484 66.32763672 34.6027832 C71.97269808 36.662059 75.91663532 36.56640286 81.38891602 34.42016602 C82.63842774 33.76933384 83.87923676 33.10159238 85.11206055 32.41967773 C86.51777896 31.68002815 87.92371176 30.94078592 89.32983398 30.2019043 C90.05376343 29.81442017 90.77769287 29.42693604 91.52355957 29.02770996 C95.21428985 27.06988068 98.95395453 25.21062602 102.69018555 23.34155273 C104.21509214 22.57495778 105.73983086 21.8080288 107.2644043 21.04077148 C108.02317871 20.65937012 108.78195312 20.27796875 109.5637207 19.88500977 C111.10545121 19.10908484 112.64646416 18.33173255 114.18676758 17.55297852 C135.49218073 6.78553318 156.4415568 -3.2206904 180.74487305 3.84936523 C178.95828118 11.19991463 176.00736159 15.52678302 170.74487305 20.84936523 C169.64405265 22.01029283 168.54384763 23.17180411 167.4440918 24.33374023 C153.0029895 39.3903775 136.86884851 49.39099949 118.2331543 58.57202148 C117.56508759 58.90207687 116.89702087 59.23213226 116.20870972 59.57218933 C112.82638406 61.24168709 109.43877872 62.8983657 106.03979492 64.53369141 C104.77076777 65.1542406 103.50188165 65.77507831 102.2331543 66.39624023 C100.53993042 67.21366699 100.53993042 67.21366699 98.8125 68.04760742 C94.13226145 70.79652589 91.25740779 73.28487394 89.5534668 78.48608398 C89.26272123 79.93641921 88.99479408 81.39144044 88.74487305 82.84936523 C88.5111499 84.08227295 88.5111499 84.08227295 88.27270508 85.34008789 C87.75846083 88.11007551 87.27899298 90.88431392 86.80737305 93.66186523 C86.63334961 94.67450439 86.45932617 95.68714355 86.2800293 96.73046875 C85.22492826 102.9093072 84.21399202 109.09400763 83.24487305 115.28686523 C83.12692383 116.03556885 83.00897461 116.78427246 82.88745117 117.55566406 C82.34888081 120.97824989 81.8130325 124.4010716 81.29223633 127.82641602 C80.80759397 131.00242252 80.30828109 134.17588778 79.80737305 137.34936523 C79.66170898 138.32832764 79.51604492 139.30729004 79.3659668 140.31591797 C77.89612138 149.49077401 75.83220432 159.37832363 68.74487305 165.84936523 C62.67277536 169.6630687 56.71127956 171.44998308 49.74487305 172.84936523 C47.31640346 146.20907984 45.44560775 119.54524925 43.74487305 92.84936523 C20.14701736 102.5671226 20.14701736 102.5671226 -3.31762695 112.59936523 C-4.01033691 112.89713867 -4.70304687 113.19491211 -5.41674805 113.50170898 C-9.88224562 115.46310266 -9.88224562 115.46310266 -13.25512695 118.84936523 C-13.98687811 120.92575196 -13.98687811 120.92575196 -14.31762695 123.34936523 C-14.55352539 124.79182617 -14.55352539 124.79182617 -14.79418945 126.26342773 C-15.15260096 129.05174779 -15.45509937 131.8248606 -15.71606445 134.62280273 C-15.79590576 135.46262695 -15.87574707 136.30245117 -15.95800781 137.16772461 C-16.11216708 138.84759539 -16.25399097 140.52865249 -16.38232422 142.21069336 C-16.7892021 146.76623083 -17.20007638 150.24005063 -20.25512695 153.84936523 C-23.06762695 155.65014648 -23.06762695 155.65014648 -26.25512695 157.16186523 C-27.30700195 157.67362305 -28.35887695 158.18538086 -29.44262695 158.71264648 C-32.25512695 159.84936523 -32.25512695 159.84936523 -35.25512695 159.84936523 C-35.99273305 155.6991016 -36.72721023 151.54835146 -37.4543457 147.39624023 C-37.92380571 144.71647565 -38.40479116 142.04027146 -38.8996582 139.36499023 C-39.97009807 133.41981345 -40.45652473 127.89129868 -40.25512695 121.84936523 C-41.0027832 122.0053418 -41.75043945 122.16131836 -42.52075195 122.32202148 C-43.5055957 122.51666992 -44.49043945 122.71131836 -45.50512695 122.91186523 C-46.4796582 123.1090918 -47.45418945 123.30631836 -48.45825195 123.50952148 C-51.12324596 123.83334059 -52.74384419 123.70439722 -55.25512695 122.84936523 C-54.2805957 121.80135742 -54.2805957 121.80135742 -53.28637695 120.73217773 C-52.0334082 119.36706055 -52.0334082 119.36706055 -50.75512695 117.97436523 C-49.5021582 116.61698242 -49.5021582 116.61698242 -48.22387695 115.23217773 C-46.04281137 113.10754891 -46.04281137 113.10754891 -46.25512695 110.84936523 C-47.87894972 109.11971288 -49.54348301 107.49012142 -51.25512695 105.84936523 C-52.73313395 104.37685652 -54.20812357 102.90131604 -55.6809082 101.42358398 C-56.4769043 100.62758789 -57.27290039 99.8315918 -58.09301758 99.01147461 C-61.8137207 95.29077148 -65.53442383 91.57006836 -69.25512695 87.84936523 C-67.78114579 84.73240889 -66.42881008 82.86538798 -63.75512695 80.66186523 C-63.14668945 80.15268555 -62.53825195 79.64350586 -61.91137695 79.11889648 C-58.8378019 76.76297221 -56.31076023 76.4911171 -52.44360352 76.54174805 C-48.60880613 77.08077579 -45.78783686 79.08865272 -42.63012695 81.22436523 C-33.68789891 87.08812133 -26.1119018 89.18883746 -15.25512695 87.84936523 C-9.73162735 85.83703498 -5.34159351 82.84207385 -0.9777832 78.96264648 C2.84254887 75.63350736 6.97184859 73.15226601 11.36987305 70.66186523 C12.84126364 69.81427222 14.31261873 68.96661756 15.78393555 68.11889648 C16.46875 67.72911621 17.15356445 67.33933594 17.85913086 66.93774414 C19.47263409 66.00649124 21.06089235 65.0317306 22.64331055 64.04858398 C24.74487305 62.84936523 24.74487305 62.84936523 26.74487305 62.84936523 C23.84816937 58.86639768 20.53655769 55.84429741 16.8190918 52.66967773 C14.87483331 50.96341699 13.05463618 49.19640038 11.24487305 47.34936523 C8.83421825 44.89488035 6.35134913 42.59494463 3.74487305 40.34936523 C0.51530938 37.56697192 -2.48835348 34.63917095 -5.47387695 31.59936523 C-7.3390237 29.76694036 -9.27440441 28.05583389 -11.25512695 26.34936523 C-14.47868827 23.57214317 -17.48088308 20.65590562 -20.45043945 17.61108398 C-23.04357262 15.07969208 -25.83723722 12.80321813 -28.65356445 10.52514648 C-30.45170986 8.64367239 -30.86760048 7.39043169 -31.25512695 4.84936523 C-29.65318624 3.86656108 -28.04848953 2.88824806 -26.44262695 1.91186523 C-25.54930664 1.3665918 -24.65598633 0.82131836 -23.7355957 0.25952148 C-16.38318381 -3.92035362 -7.53706822 -3.61076239 0 0 Z " fill="#030202" transform="translate(442.255126953125,91.150634765625)"/>
<path d="M0 0 C0.22550537 0.53141602 0.45101074 1.06283203 0.68334961 1.61035156 C12.92255823 30.41211737 25.92776765 58.10964389 42 85 C42.87913595 86.48944778 43.75806327 87.97901873 44.63671875 89.46875 C53.50046733 104.35040775 63.33110671 118.63519306 73 133 C72.67 133.66 72.34 134.32 72 135 C-23.5178176 103.37635563 -23.5178176 103.37635563 -43.02734375 66.10546875 C-43.34832031 65.41066406 -43.66929688 64.71585937 -44 64 C-44.36351563 63.21367187 -44.72703125 62.42734375 -45.1015625 61.6171875 C-47.98918938 53.20540486 -46.21930529 44.59963073 -42.53515625 36.76953125 C-36.30555803 25.53089223 -14.95037858 0 0 0 Z " fill="#030303" transform="translate(136,308)"/>
<path d="M0 0 C0.68422028 0.05838547 1.36844055 0.11677094 2.07339478 0.17692566 C4.48951186 0.39358377 6.90029245 0.64585758 9.3125 0.90234375 C10.24713074 0.99737183 11.18176147 1.0923999 12.14471436 1.19030762 C18.54744734 1.84558742 24.9409604 2.56536591 31.33251953 3.3215332 C34.70078197 3.71640082 38.0709014 4.0916174 41.44140625 4.46679688 C43.61472505 4.72144968 45.78790765 4.9772682 47.9609375 5.234375 C48.95282074 5.34183548 49.94470398 5.44929596 50.96664429 5.56001282 C58.00885341 6.42555181 66.11292423 7.70276798 71.3125 12.90234375 C71.21875 14.84375 71.21875 14.84375 70.3125 16.90234375 C55.41517669 29.24313488 28.18344835 28.7382783 9.98364258 29.68457031 C7.27855718 29.86206351 7.27855718 29.86206351 4.50636292 30.40588379 C1.46124665 30.8792223 -1.38235985 31.04189425 -4.46044922 31.06347656 C-5.57908356 31.07293808 -6.6977179 31.0823996 -7.85025024 31.09214783 C-9.65300919 31.09874168 -9.65300919 31.09874168 -11.4921875 31.10546875 C-12.75179291 31.11248306 -14.01139832 31.11949738 -15.30917358 31.12672424 C-19.39365459 31.1442777 -23.47798915 31.15116147 -27.5625 31.15234375 C-28.60119484 31.15300653 -28.60119484 31.15300653 -29.66087341 31.15368271 C-101.74506269 31.17788749 -101.74506269 31.17788749 -126.6875 18.90234375 C-127.3475 18.24234375 -128.0075 17.58234375 -128.6875 16.90234375 C-128.35778521 13.60519582 -128.0648161 12.27965985 -125.6875 9.90234375 C-105.98570547 2.49280428 -84.03337591 0.79278868 -63.1875 0.21484375 C-61.51445801 0.13097412 -61.51445801 0.13097412 -59.80761719 0.04541016 C-53.67866997 -0.01139109 -50.29500048 0.63367284 -45.65625 4.7890625 C-44.64208008 5.85000122 -44.64208008 5.85000122 -43.60742188 6.93237305 C-39.61507113 11.02879703 -34.99852572 13.07579989 -29.3125 13.46484375 C-23.787227 13.17003572 -19.19795956 11.02781819 -14.6875 7.90234375 C-13.45261172 6.46642715 -12.24401737 5.00748639 -11.0625 3.52734375 C-7.40120594 -0.2841475 -5.18837361 -0.47132351 0 0 Z " fill="#050505" transform="translate(337.6875,558.09765625)"/>
<path d="M0 0 C18.71737722 -1.6249813 36.01427598 5.9482885 50.3515625 17.671875 C63.83468762 29.23940978 73.63542205 45.16255141 75.28515625 63.10058594 C75.39975338 66.21940612 75.41728404 69.31693797 75.375 72.4375 C75.36412354 73.53280029 75.35324707 74.62810059 75.34204102 75.7565918 C75.04896756 90.62592247 71.28165863 100.57751206 63 113 C59.62537285 112.45276317 57.91765 111.9451 55 110 C56.14171217 107.06009115 57.36026673 104.16733706 58.65625 101.29296875 C58.95660156 100.62330078 59.25695312 99.95363281 59.56640625 99.26367188 C60.18442196 97.88929803 60.80676178 96.51685972 61.43359375 95.14648438 C67.44661774 81.66234259 67.72568432 67.03151842 63 53.0390625 C56.64557403 36.77674868 46.63952411 23.95760498 30.75 16.25 C21.24365569 12.21865628 11.26683509 9.88507199 1 9 C0 8 0 8 -0.09765625 6.15234375 C-0.06510417 4.1015625 -0.03255208 2.05078125 0 0 Z " fill="#0B0B0B" transform="translate(598,35)"/>
<path d="M0 0 C2.87602455 -0.10852923 5.74790832 -0.1875515 8.625 -0.25 C9.43324219 -0.28351563 10.24148438 -0.31703125 11.07421875 -0.3515625 C16.61767362 -0.44169998 19.71980253 0.16732988 24 4 C29.93119988 10.6050197 34.90344406 17.98352617 39.86669922 25.32568359 C41.02048289 27.03026102 42.18370726 28.72813326 43.34765625 30.42578125 C44.07855469 31.50214844 44.80945313 32.57851563 45.5625 33.6875 C46.22378906 34.66074219 46.88507813 35.63398438 47.56640625 36.63671875 C49 39 49 39 49 41 C40.42 41 31.84 41 23 41 C21.92621094 39.11796875 20.85242188 37.2359375 19.74609375 35.296875 C18.68039237 33.42993578 17.61449685 31.56310754 16.54858398 29.69628906 C15.82019197 28.42036264 15.09199489 27.14432491 14.36401367 25.86816406 C13.3044148 24.01075817 12.24417246 22.15372156 11.18359375 20.296875 C10.83525482 19.68670532 10.48691589 19.07653564 10.12802124 18.44787598 C7.20705713 13.34070783 4.23133625 8.26724434 1.23461914 3.20410156 C0 1 0 1 0 0 Z " fill="#FBFBFB" transform="translate(303,439)"/>
<path d="M0 0 C12.79967936 0.22277923 25.19245794 8.23786979 33.92578125 17.0859375 C44.06670751 28.93638161 46.05596064 39.99673353 45.43359375 55.15136719 C44.75721379 63.34347983 41.37740888 70.10816693 36.25 76.375 C33.75 75.125 33.75 75.125 31.25 73.375 C31.25 69.375 31.25 69.375 32.625 66.6875 C36.73091982 58.31774038 37.93933459 48.22604299 35.33984375 39.22265625 C31.38977588 29.15061825 25.39510401 19.88767683 15.453125 15 C10.06673202 12.70326391 4.60272145 10.72572087 -1.0078125 9.05078125 C-2.75 8.375 -2.75 8.375 -4.75 6.375 C-4.9375 3.8125 -4.9375 3.8125 -4.75 1.375 C-3.75 0.375 -3.75 0.375 0 0 Z " fill="#0C0C0C" transform="translate(603.75,58.625)"/>
<path d="M0 0 C15.24545603 -1.54941272 15.24545603 -1.54941272 21.625 3.625 C23.47248267 5.38531074 25.23818757 7.15950922 27 9 C28.23529274 10.22957223 29.47376951 11.45595111 30.71484375 12.6796875 C33.73460547 15.66588784 36.71217569 18.68921997 39.66235352 21.74414062 C40.99818294 23.11832833 40.99818294 23.11832833 43 24 C43 24.66 43 25.32 43 26 C25.62549052 27.46562192 25.62549052 27.46562192 19.9140625 24.27734375 C17.66597796 21.9779871 15.8324134 19.63949885 14 17 C12.80614657 15.63305055 11.59834756 14.27811835 10.375 12.9375 C9.249783 11.62518603 8.12478802 10.31268167 7 9 C5.09687107 6.85383889 3.1926602 4.70867992 1.28515625 2.56640625 C0 1 0 1 0 0 Z " fill="#F3F3F3" transform="translate(264,393)"/>
<path d="M0 0 C5.48784294 -0.27904286 8.4394688 -0.38782317 13 3 C14.94921875 5.55859375 14.94921875 5.55859375 16.6875 8.4375 C17.26886719 9.38496094 17.85023438 10.33242188 18.44921875 11.30859375 C19.71780231 13.51024128 20.90117054 15.71032089 22 18 C18.25918876 19.87040562 14.07387841 19.53273795 10 19 C4.30896642 15.73292517 1.94674093 11.18705596 0 5 C-0.25 1.9375 -0.25 1.9375 0 0 Z " fill="#F1F1F1" transform="translate(243,359)"/>
<path d="M0 0 C-0.14069196 2.12534659 -0.28770921 4.25027529 -0.4375 6.375 C-0.51871094 7.55835938 -0.59992188 8.74171875 -0.68359375 9.9609375 C-1 13 -1 13 -2 15 C-4.97 15 -7.94 15 -11 15 C-11.6132879 6.22657581 -11.6132879 6.22657581 -9.4375 1.875 C-6.18515971 -0.62680023 -4.0000237 -0.38461766 0 0 Z " fill="#EDEDED" transform="translate(251,330)"/>
<path d="M0 0 C5.34858868 -0.1076897 7.7329936 1.2894811 11.62109375 4.96484375 C13.24219089 6.6071144 14.84730137 8.26529274 16.4375 9.9375 C17.26443359 10.77474609 18.09136719 11.61199219 18.94335938 12.47460938 C25 18.69129335 25 18.69129335 25 21 C25.66 21.33 26.32 21.66 27 22 C23.875 22.9375 23.875 22.9375 20 23 C17.47009852 21.10094799 15.82599526 18.55817917 14 16 C9.67977402 10.39326809 5.6052696 5.34408394 0 1 C0 0.67 0 0.34 0 0 Z " fill="#B80C12" transform="translate(369,180)"/>
<path d="M0 0 C-1.35657605 1.66105201 -2.73610716 3.30337361 -4.125 4.9375 C-4.89070313 5.85402344 -5.65640625 6.77054687 -6.4453125 7.71484375 C-9.37050306 10.33141329 -11.14168466 10.73718722 -15 11 C-13.60991124 5.74855359 -10.1957125 3.12699328 -6 0 C-3.50907189 -1.24546405 -2.58919267 -0.7767578 0 0 Z " fill="#E7E7E7" transform="translate(267,307)"/>
<path d="M0 0 C0.66 0.33 1.32 0.66 2 1 C2 1.66 2 2.32 2 3 C-0.265625 4.9453125 -0.265625 4.9453125 -3.25 7.125 C-4.22453125 7.84945313 -5.1990625 8.57390625 -6.203125 9.3203125 C-9 11 -9 11 -13 11 C-11.6390377 6.91711311 -9.52046678 6.11314183 -5.9375 3.8125 C-4.83277344 3.09707031 -3.72804688 2.38164062 -2.58984375 1.64453125 C-1.73519531 1.10183594 -0.88054687 0.55914062 0 0 Z " fill="#E4E4E4" transform="translate(287,287)"/>
<path d="M0 0 C-1.29980583 3.89941749 -2.93254102 4.53257489 -6.375 6.6875 C-7.35210937 7.31011719 -8.32921875 7.93273437 -9.3359375 8.57421875 C-12 10 -12 10 -15 10 C-15 9.34 -15 8.68 -15 8 C-12.89980986 6.52690889 -10.82232271 5.18690365 -8.625 3.875 C-8.02171875 3.50246094 -7.4184375 3.12992187 -6.796875 2.74609375 C-2.27034684 0 -2.27034684 0 0 0 Z " fill="#D1D1D1" transform="translate(311,272)"/>
<path d="M0 0 C0.33 0.99 0.66 1.98 1 3 C-0.29296875 4.9375 -0.29296875 4.9375 -2.1875 7 C-2.79980469 7.680625 -3.41210938 8.36125 -4.04296875 9.0625 C-5.92077226 10.92156295 -7.84767281 12.47284989 -10 14 C-10.66 13.67 -11.32 13.34 -12 13 C-11.38125 12.7525 -10.7625 12.505 -10.125 12.25 C-7.56425821 10.7436813 -7.2913393 9.62065916 -6 7 C-4.99564028 5.71983165 -3.95309739 4.46871878 -2.875 3.25 C-2.33617187 2.63640625 -1.79734375 2.0228125 -1.2421875 1.390625 C-0.62730469 0.70226562 -0.62730469 0.70226562 0 0 Z " fill="#BA282B" transform="translate(381,304)"/>
<path d="M0 0 C2.49126366 1.12508681 3.47475191 2.60774047 4.9375 4.875 C3.47827307 4.76090407 2.02009402 4.63334456 0.5625 4.5 C-0.65566406 4.39558594 -0.65566406 4.39558594 -1.8984375 4.2890625 C-4.0625 3.875 -4.0625 3.875 -6.0625 1.875 C-3.89659519 0.55998637 -2.56128708 -0.15522952 0 0 Z " fill="#AB0D12" transform="translate(413.0625,175.125)"/>
<path d="M0 0 C0 3 0 3 -2.1875 5.48046875 C-3.115625 6.37378906 -4.04375 7.26710937 -5 8.1875 C-5.928125 9.08855469 -6.85625 9.98960937 -7.8125 10.91796875 C-8.534375 11.60503906 -9.25625 12.29210937 -10 13 C-10.66 12.67 -11.32 12.34 -12 12 C-8.32167983 7.47384007 -4.58913637 3.60575001 0 0 Z " fill="#AE1C1D" transform="translate(194,121)"/>
<path d="M0 0 C2.475 0.99 2.475 0.99 5 2 C5 2.66 5 3.32 5 4 C5.66 4.33 6.32 4.66 7 5 C4.69 5.33 2.38 5.66 0 6 C-1.125 2.25 -1.125 2.25 0 0 Z " fill="#BB181F" transform="translate(389,197)"/>
<path d="M0 0 C0.99 0.66 1.98 1.32 3 2 C3 2.66 3 3.32 3 4 C-3.6 4 -10.2 4 -17 4 C-17 3.67 -17 3.34 -17 3 C-15.85660156 2.95101562 -14.71320313 2.90203125 -13.53515625 2.8515625 C-12.04424527 2.77654811 -10.55336108 2.70099972 -9.0625 2.625 C-8.30775391 2.5940625 -7.55300781 2.563125 -6.77539062 2.53125 C-4.84492605 2.4273685 -2.92057919 2.22104386 -1 2 C-0.67 1.34 -0.34 0.68 0 0 Z " fill="#B62127" transform="translate(452,152)"/>
<path d="M0 0 C3.375 0.3125 3.375 0.3125 7 1 C7.66 1.99 8.32 2.98 9 4 C8.01 5.485 8.01 5.485 7 7 C5.83040013 6.02433888 4.66438823 5.044375 3.5 4.0625 C2.8503125 3.51722656 2.200625 2.97195312 1.53125 2.41015625 C1.0259375 1.94480469 0.520625 1.47945312 0 1 C0 0.67 0 0.34 0 0 Z " fill="#BE131A" transform="translate(369,180)"/>
<path d="M0 0 C0.66 0.33 1.32 0.66 2 1 C2 1.66 2 2.32 2 3 C-0.5 4.625 -0.5 4.625 -3 6 C-3.99 5.34 -4.98 4.68 -6 4 C-4.02 2.68 -2.04 1.36 0 0 Z " fill="#D3D3D3" transform="translate(287,287)"/>
<path d="M0 0 C0 0.99 0 1.98 0 3 C-2.64738916 4.4606285 -3.89448334 5 -7 5 C-7 4.34 -7 3.68 -7 3 C-2.61538462 0 -2.61538462 0 0 0 Z " fill="#E1E1E1" transform="translate(303,277)"/>
<path d="M0 0 C-1.44390925 3.80666984 -3.34952803 5.26602582 -7 7 C-7.66 6.67 -8.32 6.34 -9 6 C-7.8803014 4.99406757 -6.7540588 3.9954151 -5.625 3 C-4.68527344 2.1646875 -4.68527344 2.1646875 -3.7265625 1.3125 C-2 0 -2 0 0 0 Z " fill="#B02325" transform="translate(206,112)"/>
<path d="M0 0 C0.66 0.33 1.32 0.66 2 1 C-1.17320782 4.53586014 -3.16743695 6.58578031 -8 7 C-5.4837822 4.39391727 -2.94865641 2.10618315 0 0 Z " fill="#B02124" transform="translate(215,104)"/>
<path d="M0 0 C0.99 0.33 1.98 0.66 3 1 C2.01 2.98 1.02 4.96 0 7 C-0.66 6.01 -1.32 5.02 -2 4 C-1.34 2.68 -0.68 1.36 0 0 Z " fill="#AC1718" transform="translate(446,350)"/>
</svg>
